<mxfile host="app.diagrams.net" modified="2023-07-28T18:45:08.834Z" agent="Mozilla/5.0 (Windows NT 10.0; Win64; x64; rv:109.0) Gecko/20100101 Firefox/115.0" etag="WqQjbW0nwQq9ESaC55Qg" version="21.6.5" type="github">
  <diagram name="Página-1" id="Página-1">
    <mxGraphModel dx="3222" dy="1738" grid="1" gridSize="10" guides="1" tooltips="1" connect="1" arrows="1" fold="1" page="1" pageScale="1.5" pageWidth="827" pageHeight="1169" math="0" shadow="0">
      <root>
        <mxCell id="0" />
        <mxCell id="1" parent="0" />
        <mxCell id="GE-7vIbtORho7ODCPzzV-29" value="&lt;font data-font-src=&quot;https://fonts.googleapis.com/css?family=DM+Sans&quot; style=&quot;font-size: 39px;&quot; face=&quot;DM Sans&quot;&gt;Fluxo de escalonamento NOC&amp;nbsp; Quality - Santher&lt;/font&gt;" style="text;html=1;strokeColor=none;fillColor=none;align=center;verticalAlign=middle;whiteSpace=wrap;rounded=0;" parent="1" vertex="1">
          <mxGeometry x="95" y="30" width="900" height="70" as="geometry" />
        </mxCell>
        <mxCell id="GE-7vIbtORho7ODCPzzV-30" value="" style="shape=image;verticalLabelPosition=bottom;labelBackgroundColor=default;verticalAlign=top;aspect=fixed;imageAspect=0;image=data:image/svg+xml,PHN2ZyB2aWV3Qm94PSIwIDAgNDc4LjQxIDE1Mi4zNCIgeG1sbnM9Imh0dHA6Ly93d3cudzMub3JnLzIwMDAvc3ZnIiBkYXRhLW5hbWU9IkxheWVyIDEiIGlkPSJMYXllcl8xIj48ZGVmcz48c3R5bGU+LmNscy0xe2ZpbGw6I2U5NGQ0OTt9LmNscy0xLC5jbHMtMntmaWxsLXJ1bGU6ZXZlbm9kZDt9LmNscy0yLC5jbHMtM3tmaWxsOiMxMjE3Mjg7fTwvc3R5bGU+PC9kZWZzPjx0aXRsZT5MT0dPIEFaVUwgRSBWRVJNRUxIQTwvdGl0bGU+PHBhdGggdHJhbnNmb3JtPSJ0cmFuc2xhdGUoLTE2Ny45IC0yMTMuNikiIGQ9Ik0yNzQuODQsMzIzLjdBNTAuNzEsNTAuNzEsMCwxLDEsMjg3LjM2LDMwNmwxOC41NSwxMS43OGE3Mi43NSw3Mi43NSwwLDEsMC0zMC41MywzMi4xMkwzMDAuNzQsMzY2bDExLjYyLTE4LjMxWiIgY2xhc3M9ImNscy0xIi8+PHBhdGggdHJhbnNmb3JtPSJ0cmFuc2xhdGUoLTE2Ny45IC0yMTMuNikiIGQ9Ik0yMjkuMTIsMjU5LjcyQTI4Ljg1LDI4Ljg1LDAsMSwxLDIxNCwyOTcuNjIsMjguODUsMjguODUsMCwwLDEsMjI5LjEyLDI1OS43MloiIGNsYXNzPSJjbHMtMiIvPjxwYXRoIHRyYW5zZm9ybT0idHJhbnNsYXRlKC0xNjcuOSAtMjEzLjYpIiBkPSJNMzQ2LjI1LDI1OS45bC0zLjYxLDI1Ljc3Yy0uOTIsNi4zOS0xLjY0LDEyLjg5LDExLjU1LDEyLjg5YTI4LDI4LDAsMCwwLDE2LjM5LTQuNzRsNC43NC0zMy45MmgxNi41bC03LjIyLDUxLjU0aC00LjEybC04Ljg3LTUuNTZjLTYuMzksNS40Ni0xMi4yNyw3LjYzLTIxLjM0LDcuNjMtMjAuOTIsMC0yNi4zOS0xMS41NS0yNC40My0yNS43OGwzLjkyLTI3LjgzWiIgY2xhc3M9ImNscy0zIi8+PHBhdGggdHJhbnNmb3JtPSJ0cmFuc2xhdGUoLTE2Ny45IC0yMTMuNikiIGQ9Ik00NTksMzExLjQ0SDQ1NC45TDQ0NiwzMDUuODhjLTYuMzksNS40Ni0xMi4yNiw3LjYzLTIxLjM0LDcuNjMtMjAuOTIsMC0yNi40OS0xMS41NS0yNC40My0yNS43OGwuNjItNC4xMmMyLjE3LTE0LjIyLDEwLTI1Ljc3LDMzLjMtMjUuNzdoMi44OGMyMy4wOSwwLDI3Ljg0LDExLjU1LDI1Ljg4LDI1Ljc3Wm0tMTQtMTcuNjIsMS4xMy04LjE1Yy45My02LjcsMS44Ni0xMi44OC0xMi42Ny0xMi44OHMtMTYuODEsNi4xOC0xNi44MSwxNi43YzAsNC42NCwyLDkuMDcsMTIsOS4wN0EyNy45NCwyNy45NCwwLDAsMCw0NDUsMjkzLjgyWiIgY2xhc3M9ImNscy0zIi8+PHBhdGggdHJhbnNmb3JtPSJ0cmFuc2xhdGUoLTE2Ny45IC0yMTMuNikiIGQ9Ik00ODcuMTcsMjM5LjM2bDExLjQ0LDcuMjEtOS43LDY0Ljg3SDQ3Mi40MmwxMC42My03Mi4wOFoiIGNsYXNzPSJjbHMtMyIvPjxwYXRoIHRyYW5zZm9ybT0idHJhbnNsYXRlKC0xNjcuOSAtMjEzLjYpIiBkPSJNNTE0LjY4LDI1OS45LDUyNiwyNjcuMTJsLTYuMTksNDQuMzJINTAzLjM0bDcuMjEtNTEuNTRabS0yLjU4LTEzLjA3Yy43Mi00LjIzLDMtNy43Myw5LjktNy43M2guODJjNi45MSwwLDguNTYsMy41LDcuODQsNy43M2wtLjIxLDEuMjRjLS43Miw0LjIyLTMsNy43My05LjksNy43M2gtLjgyYy02LjkxLDAtOC41Ni0zLjUxLTcuODQtNy43M1oiIGNsYXNzPSJjbHMtMyIvPjxwYXRoIHRyYW5zZm9ybT0idHJhbnNsYXRlKC0xNjcuOSAtMjEzLjYpIiBkPSJNNTU3LDI1OS45aDE1Ljg4bC0yLjA2LDE0LjQzaC0xNmwtMi4yNywxNi41Yy0uNjIsNC41My0uNTIsNy4yMSw4Ljc2LDcuMjFhMzYuODksMzYuODksMCwwLDAsOS42OS0xLjEzTDU2OSwzMTJhNDYuMDksNDYuMDksMCwwLDEtMTAuNTEsMWMtMTguNTYsMC0yNC40My03LjIyLTIyLjU4LTIwLjFsNy41My01My42aDQuMTJsMTEuMzQsNy4yMVoiIGNsYXNzPSJjbHMtMyIvPjxwYXRoIHRyYW5zZm9ybT0idHJhbnNsYXRlKC0xNjcuOSAtMjEzLjYpIiBkPSJNNjM4LjM3LDMxNi42Yy0yLjA2LDE0Ljc0LTExLjQ0LDIyLjY4LTM0LjQzLDIyLjY4YTkwLjI4LDkwLjI4LDAsMCwxLTIxLjY1LTIuNThsMi4xNy0xNS40NmM1Ljg3LDIuMDYsMTQuNzQsMy4wOSwyMS4xMywzLjA5LDE0LjY0LDAsMTUuNjctMy41MSwxNi42LTkuNzlsLjQxLTIuODlhNDYsNDYsMCwwLDEtMTMuMywxLjg2Yy0yMy4wOSwwLTI3LjgzLTExLjU1LTI1Ljg3LTI1Ljc4bDMuOTItMjcuODNoMTYuNDlsLTMuNjEsMjUuNzdjLS45Myw2LjctMS43NSwxMi44OSwxMi4xNiwxMi44OWE0My4xNiw0My4xNiwwLDAsMCwxMi4yNy0xLjY1bDUuMTUtMzdoMTYuNVoiIGNsYXNzPSJjbHMtMyIvPjwvc3ZnPg==;" parent="1" vertex="1">
          <mxGeometry x="1020" y="20" width="220.13" height="70" as="geometry" />
        </mxCell>
        <mxCell id="GE-7vIbtORho7ODCPzzV-31" value="" style="group" parent="1" vertex="1" connectable="0">
          <mxGeometry x="80" y="110" width="194" height="60" as="geometry" />
        </mxCell>
        <mxCell id="eNxJHawOFmUS5L9MufU_-24" style="edgeStyle=orthogonalEdgeStyle;rounded=0;orthogonalLoop=1;jettySize=auto;html=1;" edge="1" parent="GE-7vIbtORho7ODCPzzV-31" source="2">
          <mxGeometry relative="1" as="geometry">
            <mxPoint x="97" y="100" as="targetPoint" />
          </mxGeometry>
        </mxCell>
        <UserObject label="" tags="Fluxograma" id="2">
          <mxCell style="verticalAlign=middle;align=center;overflow=width;vsdxID=1;fillColor=none;gradientColor=none;shape=stencil(tVLREoIgEPwaHnEItOnd7D+YBGUicA5K+/sgbNLMXpre9m737mZhEStdyzuBKHEe7En0qvYtYntEqTKtAOUDQqxCrJQWRAP2YupUdzwqIzrba9wwpLlNkeXbOEXJbewQ8qgPSa6Vmch3eVbk3+QcjoGD5XYY9UWSry988pgPymGwnntlzYzTHBqBwyksNW9mlOuF6Bbtj16W1n9ysv6Sf/ESwOtPpdI6RWLKv2cgtFJ+WHUH);strokeColor=#4F4F4F;spacingTop=-1;spacingBottom=-1;spacingLeft=4;spacingRight=4;points=[[0.5,0,0],[0.5,0.5,0],[1,0.5,0]];labelBackgroundColor=none;rounded=0;html=1;whiteSpace=wrap;strokeWidth=4;" parent="GE-7vIbtORho7ODCPzzV-31" vertex="1">
            <mxGeometry width="194" height="60" as="geometry" />
          </mxCell>
        </UserObject>
        <mxCell id="GE-7vIbtORho7ODCPzzV-15" value="&lt;font data-font-src=&quot;https://fonts.googleapis.com/css?family=REM&quot; size=&quot;1&quot; face=&quot;REM&quot; color=&quot;#006600&quot;&gt;&lt;b style=&quot;font-size: 26px;&quot;&gt;INICIO&lt;/b&gt;&lt;/font&gt;" style="text;html=1;strokeColor=none;fillColor=none;align=center;verticalAlign=middle;whiteSpace=wrap;rounded=0;" parent="GE-7vIbtORho7ODCPzzV-31" vertex="1">
          <mxGeometry x="66.51999999999998" y="15" width="60" height="30" as="geometry" />
        </mxCell>
        <mxCell id="GE-7vIbtORho7ODCPzzV-32" value="" style="group" parent="1" vertex="1" connectable="0">
          <mxGeometry x="782.9999999999998" y="1600" width="194" height="60" as="geometry" />
        </mxCell>
        <UserObject label="" tags="Fluxograma" id="15">
          <mxCell style="verticalAlign=middle;align=center;overflow=width;vsdxID=133;fillColor=none;gradientColor=none;shape=stencil(tVLREoIgEPwaHnEItOnd7D+YBGUicA5K+/sgbNLMXpre9m737mZhEStdyzuBKHEe7En0qvYtYntEqTKtAOUDQqxCrJQWRAP2YupUdzwqIzrba9wwpLlNkeXbOEXJbewQ8qgPSa6Vmch3eVbk3+QcjoGD5XYY9UWSry988pgPymGwnntlzYzTHBqBwyksNW9mlOuF6Bbtj16W1n9ysv6Sf/ESwOtPpdI6RWLKv2cgtFJ+WHUH);strokeColor=#4F4F4F;spacingTop=-1;spacingBottom=-1;spacingLeft=4;spacingRight=4;points=[[0.5,0,0],[0.5,0.5,0],[1,0.5,0]];labelBackgroundColor=none;rounded=0;html=1;whiteSpace=wrap;strokeWidth=4;" parent="GE-7vIbtORho7ODCPzzV-32" vertex="1">
            <mxGeometry width="194" height="60" as="geometry" />
          </mxCell>
        </UserObject>
        <mxCell id="GE-7vIbtORho7ODCPzzV-17" value="&lt;font size=&quot;1&quot; face=&quot;REM&quot; color=&quot;#cc0000&quot;&gt;&lt;b style=&quot;font-size: 26px;&quot;&gt;FIM&lt;/b&gt;&lt;/font&gt;" style="text;html=1;strokeColor=none;fillColor=none;align=center;verticalAlign=middle;whiteSpace=wrap;rounded=0;" parent="GE-7vIbtORho7ODCPzzV-32" vertex="1">
          <mxGeometry x="67" y="15" width="60" height="30" as="geometry" />
        </mxCell>
        <UserObject label="&lt;font face=&quot;DM Sans&quot; color=&quot;#ffffff&quot;&gt;&lt;b&gt;Incidente gera &lt;/b&gt;&lt;/font&gt;&lt;font face=&quot;DM Sans&quot; color=&quot;#ffffff&quot;&gt;&lt;b&gt;alerta no Zabbix&lt;br&gt;&lt;/b&gt;&lt;/font&gt;" tags="Fluxograma" id="VxPaIPQbrVnLCbv-KDc1-16">
          <mxCell style="verticalAlign=middle;align=center;overflow=width;vsdxID=64;fillColor=#1ba1e2;gradientColor=none;shape=stencil(nZBLDoAgDERP0z3SIyjew0SURgSD+Lu9kMZoXLhwN9O+tukAlrNpJg1SzDH4QW/URgNYgZTkjA4UkwJUgGXng+6DX1zLfmoymdXo17xh5zmRJ6Q42BWCfc2oJfdAr+Yv+AP9Cb7OJ3H/2JG1HNGz/84klThPVCc=);strokeColor=#ffffff;spacingTop=-1;spacingBottom=-1;spacingLeft=4;spacingRight=4;points=[[1,0.5,0],[0.5,0.5,0],[0.5,0,0]];labelBackgroundColor=none;rounded=0;html=1;whiteSpace=wrap;" parent="1" vertex="1">
            <mxGeometry x="80" y="214.21" width="200" height="90" as="geometry" />
          </mxCell>
        </UserObject>
        <UserObject label="&lt;font face=&quot;DM Sans&quot; color=&quot;#ffffff&quot;&gt;&lt;b&gt;Zabbix envia o alerta para Pager Duty e Grafana&lt;br&gt;&lt;/b&gt;&lt;/font&gt;" tags="Fluxograma" id="VxPaIPQbrVnLCbv-KDc1-17">
          <mxCell style="verticalAlign=middle;align=center;overflow=width;vsdxID=64;fillColor=#1ba1e2;gradientColor=none;shape=stencil(nZBLDoAgDERP0z3SIyjew0SURgSD+Lu9kMZoXLhwN9O+tukAlrNpJg1SzDH4QW/URgNYgZTkjA4UkwJUgGXng+6DX1zLfmoymdXo17xh5zmRJ6Q42BWCfc2oJfdAr+Yv+AP9Cb7OJ3H/2JG1HNGz/84klThPVCc=);strokeColor=#ffffff;spacingTop=-1;spacingBottom=-1;spacingLeft=4;spacingRight=4;points=[[1,0.5,0],[0.5,0.5,0],[0.5,0,0]];labelBackgroundColor=none;rounded=0;html=1;whiteSpace=wrap;" parent="1" vertex="1">
            <mxGeometry x="330" y="214.5" width="200" height="90" as="geometry" />
          </mxCell>
        </UserObject>
        <mxCell id="eNxJHawOFmUS5L9MufU_-25" style="edgeStyle=orthogonalEdgeStyle;rounded=0;orthogonalLoop=1;jettySize=auto;html=1;entryX=0.5;entryY=0;entryDx=0;entryDy=0;entryPerimeter=0;" edge="1" parent="1" source="VxPaIPQbrVnLCbv-KDc1-18" target="VxPaIPQbrVnLCbv-KDc1-19">
          <mxGeometry relative="1" as="geometry">
            <Array as="points">
              <mxPoint x="680" y="330" />
              <mxPoint x="137" y="330" />
            </Array>
          </mxGeometry>
        </mxCell>
        <UserObject label="&lt;font face=&quot;DM Sans&quot; color=&quot;#ffffff&quot;&gt;&lt;b&gt;Zabbix gera chamado no ITSM (Santher) na Fila N3&lt;br&gt;&lt;/b&gt;&lt;/font&gt;" tags="Fluxograma" id="VxPaIPQbrVnLCbv-KDc1-18">
          <mxCell style="verticalAlign=middle;align=center;overflow=width;vsdxID=64;fillColor=#1ba1e2;gradientColor=none;shape=stencil(nZBLDoAgDERP0z3SIyjew0SURgSD+Lu9kMZoXLhwN9O+tukAlrNpJg1SzDH4QW/URgNYgZTkjA4UkwJUgGXng+6DX1zLfmoymdXo17xh5zmRJ6Q42BWCfc2oJfdAr+Yv+AP9Cb7OJ3H/2JG1HNGz/84klThPVCc=);strokeColor=#ffffff;spacingTop=-1;spacingBottom=-1;spacingLeft=4;spacingRight=4;points=[[1,0.5,0],[0.5,0.5,0],[0.5,0,0]];labelBackgroundColor=none;rounded=0;html=1;whiteSpace=wrap;" parent="1" vertex="1">
            <mxGeometry x="580" y="214.21" width="200" height="90" as="geometry" />
          </mxCell>
        </UserObject>
        <mxCell id="VxPaIPQbrVnLCbv-KDc1-26" style="edgeStyle=orthogonalEdgeStyle;rounded=0;orthogonalLoop=1;jettySize=auto;html=1;exitX=1;exitY=0.5;exitDx=0;exitDy=0;exitPerimeter=0;" parent="1" source="VxPaIPQbrVnLCbv-KDc1-19" target="VxPaIPQbrVnLCbv-KDc1-24" edge="1">
          <mxGeometry relative="1" as="geometry">
            <Array as="points">
              <mxPoint x="280" y="441" />
              <mxPoint x="280" y="441" />
            </Array>
          </mxGeometry>
        </mxCell>
        <mxCell id="VxPaIPQbrVnLCbv-KDc1-33" value="&lt;b&gt;&lt;font style=&quot;font-size: 15px;&quot; data-font-src=&quot;https://fonts.googleapis.com/css?family=DM+Sans&quot; face=&quot;DM Sans&quot; color=&quot;#ff0000&quot;&gt;NÃO&lt;/font&gt;&lt;/b&gt;" style="edgeLabel;html=1;align=center;verticalAlign=middle;resizable=0;points=[];" parent="VxPaIPQbrVnLCbv-KDc1-26" vertex="1" connectable="0">
          <mxGeometry x="-0.3845" y="2" relative="1" as="geometry">
            <mxPoint x="9" y="1" as="offset" />
          </mxGeometry>
        </mxCell>
        <UserObject label="" tags="Fluxograma" id="VxPaIPQbrVnLCbv-KDc1-19">
          <mxCell style="vsdxID=222;fillColor=none;gradientColor=none;shape=stencil(UzV2Ls5ILEhVNTIoLinKz04tz0wpyVA1dlE1MsrMy0gtyiwBslSNXVWNndPyi1LTi/JL81Ig/IJEkEoQKze/DGRCBUSfAUiHkUElhGcK4bpBVOZk5iGpNEVVikeloQHZpsK0YlWLz1QgA+HFtMycHEgIIcujBwlQCBKcxq4A);strokeColor=#D80073;spacingTop=-1;spacingBottom=-1;spacingLeft=4;spacingRight=4;points=[[1,0.5,0],[0.5,0,0],[0.5,0,0],[0.51,0.99,0],[0.52,0.98,0]];labelBackgroundColor=none;rounded=0;html=1;whiteSpace=wrap;strokeWidth=5;" parent="1" vertex="1">
            <mxGeometry x="55" y="360" width="175" height="161" as="geometry" />
          </mxCell>
        </UserObject>
        <mxCell id="VxPaIPQbrVnLCbv-KDc1-20" value="&lt;font style=&quot;font-size: 16px;&quot; data-font-src=&quot;https://fonts.googleapis.com/css?family=DM+Sans&quot; face=&quot;DM Sans&quot; color=&quot;#383838&quot;&gt;É alertade link?&lt;/font&gt;" style="text;vsdxID=222;fillColor=none;gradientColor=none;strokeColor=none;spacingTop=-1;spacingBottom=-1;spacingLeft=4;spacingRight=4;points=[[1,0.5,0],[0.5,0,0],[0.5,0,0],[0.51,0.99,0],[0.52,0.98,0]];labelBackgroundColor=none;rounded=0;html=1;whiteSpace=wrap;verticalAlign=middle;align=center;overflow=width;;html=1;" parent="VxPaIPQbrVnLCbv-KDc1-19" vertex="1">
          <mxGeometry x="14.66" y="19.61" width="146.64" height="121.19" as="geometry" />
        </mxCell>
        <mxCell id="eNxJHawOFmUS5L9MufU_-47" style="edgeStyle=orthogonalEdgeStyle;rounded=0;orthogonalLoop=1;jettySize=auto;html=1;entryX=0.5;entryY=0;entryDx=0;entryDy=0;entryPerimeter=0;" edge="1" parent="1" source="VxPaIPQbrVnLCbv-KDc1-21" target="VxPaIPQbrVnLCbv-KDc1-30">
          <mxGeometry relative="1" as="geometry" />
        </mxCell>
        <UserObject label="&lt;font face=&quot;DM Sans&quot; color=&quot;#ffffff&quot;&gt;&lt;b&gt;Operação abre chamado com a operadora&lt;br&gt;&lt;/b&gt;&lt;/font&gt;" tags="Fluxograma" id="VxPaIPQbrVnLCbv-KDc1-21">
          <mxCell style="verticalAlign=middle;align=center;overflow=width;vsdxID=64;fillColor=#1ba1e2;gradientColor=none;shape=stencil(nZBLDoAgDERP0z3SIyjew0SURgSD+Lu9kMZoXLhwN9O+tukAlrNpJg1SzDH4QW/URgNYgZTkjA4UkwJUgGXng+6DX1zLfmoymdXo17xh5zmRJ6Q42BWCfc2oJfdAr+Yv+AP9Cb7OJ3H/2JG1HNGz/84klThPVCc=);strokeColor=#ffffff;spacingTop=-1;spacingBottom=-1;spacingLeft=4;spacingRight=4;points=[[1,0.5,0],[0.5,0.5,0],[0.5,0,0]];labelBackgroundColor=none;rounded=0;html=1;whiteSpace=wrap;" parent="1" vertex="1">
            <mxGeometry x="42.5" y="770" width="200" height="90" as="geometry" />
          </mxCell>
        </UserObject>
        <mxCell id="eNxJHawOFmUS5L9MufU_-56" style="edgeStyle=orthogonalEdgeStyle;rounded=0;orthogonalLoop=1;jettySize=auto;html=1;entryX=0.5;entryY=0;entryDx=0;entryDy=0;entryPerimeter=0;" edge="1" parent="1" source="VxPaIPQbrVnLCbv-KDc1-30" target="VxPaIPQbrVnLCbv-KDc1-31">
          <mxGeometry relative="1" as="geometry" />
        </mxCell>
        <UserObject label="&lt;font face=&quot;DM Sans&quot; color=&quot;#ffffff&quot;&gt;&lt;b&gt;Operação atualiza o ITSM (Santher) com a informação do chamado da operadora&lt;br&gt;&lt;/b&gt;&lt;/font&gt;" tags="Fluxograma" id="VxPaIPQbrVnLCbv-KDc1-30">
          <mxCell style="verticalAlign=middle;align=center;overflow=width;vsdxID=64;fillColor=#1ba1e2;gradientColor=none;shape=stencil(nZBLDoAgDERP0z3SIyjew0SURgSD+Lu9kMZoXLhwN9O+tukAlrNpJg1SzDH4QW/URgNYgZTkjA4UkwJUgGXng+6DX1zLfmoymdXo17xh5zmRJ6Q42BWCfc2oJfdAr+Yv+AP9Cb7OJ3H/2JG1HNGz/84klThPVCc=);strokeColor=#ffffff;spacingTop=-1;spacingBottom=-1;spacingLeft=4;spacingRight=4;points=[[1,0.5,0],[0.5,0.5,0],[0.5,0,0]];labelBackgroundColor=none;rounded=0;html=1;whiteSpace=wrap;" parent="1" vertex="1">
            <mxGeometry x="42.5" y="950" width="200" height="90" as="geometry" />
          </mxCell>
        </UserObject>
        <mxCell id="eNxJHawOFmUS5L9MufU_-55" style="edgeStyle=orthogonalEdgeStyle;rounded=0;orthogonalLoop=1;jettySize=auto;html=1;" edge="1" parent="1" source="VxPaIPQbrVnLCbv-KDc1-31" target="VxPaIPQbrVnLCbv-KDc1-62">
          <mxGeometry relative="1" as="geometry" />
        </mxCell>
        <UserObject label="&lt;font face=&quot;DM Sans&quot; color=&quot;#ffffff&quot;&gt;&lt;b&gt;Operação encaminha chamado para N2 Field no ITSM (Santher)&lt;br&gt;&lt;/b&gt;&lt;/font&gt;" tags="Fluxograma" id="VxPaIPQbrVnLCbv-KDc1-31">
          <mxCell style="verticalAlign=middle;align=center;overflow=width;vsdxID=64;fillColor=#1ba1e2;gradientColor=none;shape=stencil(nZBLDoAgDERP0z3SIyjew0SURgSD+Lu9kMZoXLhwN9O+tukAlrNpJg1SzDH4QW/URgNYgZTkjA4UkwJUgGXng+6DX1zLfmoymdXo17xh5zmRJ6Q42BWCfc2oJfdAr+Yv+AP9Cb7OJ3H/2JG1HNGz/84klThPVCc=);strokeColor=#ffffff;spacingTop=-1;spacingBottom=-1;spacingLeft=4;spacingRight=4;points=[[1,0.5,0],[0.5,0.5,0],[0.5,0,0]];labelBackgroundColor=none;rounded=0;html=1;whiteSpace=wrap;" parent="1" vertex="1">
            <mxGeometry x="42.5" y="1270" width="200" height="90" as="geometry" />
          </mxCell>
        </UserObject>
        <mxCell id="eNxJHawOFmUS5L9MufU_-59" style="edgeStyle=orthogonalEdgeStyle;rounded=0;orthogonalLoop=1;jettySize=auto;html=1;entryX=0.004;entryY=0.52;entryDx=0;entryDy=0;entryPerimeter=0;dashed=1;" edge="1" parent="1" source="VxPaIPQbrVnLCbv-KDc1-32" target="15">
          <mxGeometry relative="1" as="geometry">
            <Array as="points">
              <mxPoint x="400" y="1631" />
            </Array>
          </mxGeometry>
        </mxCell>
        <UserObject label="&lt;font face=&quot;DM Sans&quot; color=&quot;#ffffff&quot;&gt;&lt;b&gt;Operação informa no grupo de Whatsapp NOC Quality | Santher Marcando o N3&lt;br&gt;&lt;/b&gt;&lt;/font&gt;" tags="Fluxograma" id="VxPaIPQbrVnLCbv-KDc1-32">
          <mxCell style="verticalAlign=middle;align=center;overflow=width;vsdxID=64;fillColor=#1ba1e2;gradientColor=none;shape=stencil(nZBLDoAgDERP0z3SIyjew0SURgSD+Lu9kMZoXLhwN9O+tukAlrNpJg1SzDH4QW/URgNYgZTkjA4UkwJUgGXng+6DX1zLfmoymdXo17xh5zmRJ6Q42BWCfc2oJfdAr+Yv+AP9Cb7OJ3H/2JG1HNGz/84klThPVCc=);strokeColor=#ffffff;spacingTop=-1;spacingBottom=-1;spacingLeft=4;spacingRight=4;points=[[1,0.5,0],[0.5,0.5,0],[0.5,0,0]];labelBackgroundColor=none;rounded=0;html=1;whiteSpace=wrap;" parent="1" vertex="1">
            <mxGeometry x="300" y="770" width="200" height="90" as="geometry" />
          </mxCell>
        </UserObject>
        <mxCell id="VxPaIPQbrVnLCbv-KDc1-39" style="edgeStyle=orthogonalEdgeStyle;rounded=0;orthogonalLoop=1;jettySize=auto;html=1;exitX=1;exitY=0.5;exitDx=0;exitDy=0;exitPerimeter=0;" parent="1" source="VxPaIPQbrVnLCbv-KDc1-24" target="VxPaIPQbrVnLCbv-KDc1-38" edge="1">
          <mxGeometry relative="1" as="geometry">
            <mxPoint x="1241.24" y="984.5" as="sourcePoint" />
            <mxPoint x="1343.48" y="875.7200000000003" as="targetPoint" />
            <Array as="points">
              <mxPoint x="600" y="440" />
              <mxPoint x="600" y="440" />
            </Array>
          </mxGeometry>
        </mxCell>
        <mxCell id="VxPaIPQbrVnLCbv-KDc1-40" value="&lt;b&gt;&lt;font style=&quot;font-size: 15px;&quot; data-font-src=&quot;https://fonts.googleapis.com/css?family=DM+Sans&quot; face=&quot;DM Sans&quot; color=&quot;#ff0000&quot;&gt;NÃO&lt;/font&gt;&lt;/b&gt;" style="edgeLabel;html=1;align=center;verticalAlign=middle;resizable=0;points=[];" parent="VxPaIPQbrVnLCbv-KDc1-39" vertex="1" connectable="0">
          <mxGeometry x="-0.3845" y="2" relative="1" as="geometry">
            <mxPoint x="8" y="2" as="offset" />
          </mxGeometry>
        </mxCell>
        <mxCell id="eNxJHawOFmUS5L9MufU_-60" style="edgeStyle=orthogonalEdgeStyle;rounded=0;orthogonalLoop=1;jettySize=auto;html=1;entryX=0;entryY=0.5;entryDx=0;entryDy=0;entryPerimeter=0;" edge="1" parent="1" source="VxPaIPQbrVnLCbv-KDc1-38" target="VxPaIPQbrVnLCbv-KDc1-41">
          <mxGeometry relative="1" as="geometry" />
        </mxCell>
        <UserObject label="&lt;font face=&quot;DM Sans&quot; color=&quot;#ffffff&quot;&gt;&lt;b&gt;IMOC N3 realiza primeiro atendimento&lt;br&gt;&lt;/b&gt;&lt;/font&gt;" tags="Fluxograma" id="VxPaIPQbrVnLCbv-KDc1-38">
          <mxCell style="verticalAlign=middle;align=center;overflow=width;vsdxID=64;fillColor=#1ba1e2;gradientColor=none;shape=stencil(nZBLDoAgDERP0z3SIyjew0SURgSD+Lu9kMZoXLhwN9O+tukAlrNpJg1SzDH4QW/URgNYgZTkjA4UkwJUgGXng+6DX1zLfmoymdXo17xh5zmRJ6Q42BWCfc2oJfdAr+Yv+AP9Cb7OJ3H/2JG1HNGz/84klThPVCc=);strokeColor=#ffffff;spacingTop=-1;spacingBottom=-1;spacingLeft=4;spacingRight=4;points=[[1,0.5,0],[0.5,0.5,0],[0.5,0,0]];labelBackgroundColor=none;rounded=0;html=1;whiteSpace=wrap;" parent="1" vertex="1">
            <mxGeometry x="567.5" y="395.5" width="200" height="90" as="geometry" />
          </mxCell>
        </UserObject>
        <mxCell id="VxPaIPQbrVnLCbv-KDc1-46" style="edgeStyle=orthogonalEdgeStyle;rounded=0;orthogonalLoop=1;jettySize=auto;html=1;exitX=0.502;exitY=1.002;exitDx=0;exitDy=0;exitPerimeter=0;entryX=0.5;entryY=0;entryDx=0;entryDy=0;entryPerimeter=0;" parent="1" source="VxPaIPQbrVnLCbv-KDc1-41" target="VxPaIPQbrVnLCbv-KDc1-44" edge="1">
          <mxGeometry relative="1" as="geometry">
            <mxPoint x="1543.74" y="885.5" as="sourcePoint" />
            <mxPoint x="580" y="550" as="targetPoint" />
            <Array as="points">
              <mxPoint x="948" y="530" />
              <mxPoint x="648" y="530" />
              <mxPoint x="648" y="570" />
            </Array>
          </mxGeometry>
        </mxCell>
        <mxCell id="VxPaIPQbrVnLCbv-KDc1-47" value="&lt;b&gt;&lt;font style=&quot;font-size: 15px;&quot; data-font-src=&quot;https://fonts.googleapis.com/css?family=DM+Sans&quot; face=&quot;DM Sans&quot; color=&quot;#ff0000&quot;&gt;NÃO&lt;/font&gt;&lt;/b&gt;" style="edgeLabel;html=1;align=center;verticalAlign=middle;resizable=0;points=[];" parent="VxPaIPQbrVnLCbv-KDc1-46" vertex="1" connectable="0">
          <mxGeometry x="-0.3845" y="2" relative="1" as="geometry">
            <mxPoint x="-66" y="-2" as="offset" />
          </mxGeometry>
        </mxCell>
        <mxCell id="VxPaIPQbrVnLCbv-KDc1-55" style="edgeStyle=orthogonalEdgeStyle;rounded=0;orthogonalLoop=1;jettySize=auto;html=1;exitX=1;exitY=0.5;exitDx=0;exitDy=0;exitPerimeter=0;" parent="1" source="VxPaIPQbrVnLCbv-KDc1-44" edge="1">
          <mxGeometry relative="1" as="geometry">
            <mxPoint x="750" y="640.5" as="sourcePoint" />
            <mxPoint x="925.0303030303032" y="770" as="targetPoint" />
            <Array as="points">
              <mxPoint x="925" y="651" />
            </Array>
          </mxGeometry>
        </mxCell>
        <mxCell id="VxPaIPQbrVnLCbv-KDc1-56" value="&lt;b&gt;&lt;font style=&quot;font-size: 15px;&quot; data-font-src=&quot;https://fonts.googleapis.com/css?family=REM&quot; face=&quot;REM&quot; color=&quot;#383838&quot;&gt;SANTHER&lt;/font&gt;&lt;/b&gt;" style="edgeLabel;html=1;align=center;verticalAlign=middle;resizable=0;points=[];" parent="VxPaIPQbrVnLCbv-KDc1-55" vertex="1" connectable="0">
          <mxGeometry x="-0.1359" y="2" relative="1" as="geometry">
            <mxPoint x="-29" y="2" as="offset" />
          </mxGeometry>
        </mxCell>
        <mxCell id="VxPaIPQbrVnLCbv-KDc1-58" style="edgeStyle=orthogonalEdgeStyle;rounded=0;orthogonalLoop=1;jettySize=auto;html=1;entryX=0.5;entryY=0;entryDx=0;entryDy=0;entryPerimeter=0;" parent="1" source="VxPaIPQbrVnLCbv-KDc1-44" target="VxPaIPQbrVnLCbv-KDc1-57" edge="1">
          <mxGeometry relative="1" as="geometry">
            <Array as="points">
              <mxPoint x="648" y="780" />
              <mxPoint x="648" y="780" />
              <mxPoint x="648" y="841" />
              <mxPoint x="648" y="841" />
            </Array>
          </mxGeometry>
        </mxCell>
        <mxCell id="VxPaIPQbrVnLCbv-KDc1-59" value="&lt;font data-font-src=&quot;https://fonts.googleapis.com/css?family=REM&quot; size=&quot;1&quot; face=&quot;REM&quot; color=&quot;#383838&quot;&gt;&lt;b style=&quot;font-size: 15px;&quot;&gt;SHARED&lt;/b&gt;&lt;/font&gt;" style="edgeLabel;html=1;align=center;verticalAlign=middle;resizable=0;points=[];" parent="VxPaIPQbrVnLCbv-KDc1-58" vertex="1" connectable="0">
          <mxGeometry x="-0.0155" y="2" relative="1" as="geometry">
            <mxPoint x="-2" y="-67" as="offset" />
          </mxGeometry>
        </mxCell>
        <UserObject label="" tags="Fluxograma" id="VxPaIPQbrVnLCbv-KDc1-44">
          <mxCell style="vsdxID=222;fillColor=none;gradientColor=none;shape=stencil(UzV2Ls5ILEhVNTIoLinKz04tz0wpyVA1dlE1MsrMy0gtyiwBslSNXVWNndPyi1LTi/JL81Ig/IJEkEoQKze/DGRCBUSfAUiHkUElhGcK4bpBVOZk5iGpNEVVikeloQHZpsK0YlWLz1QgA+HFtMycHEgIIcujBwlQCBKcxq4A);strokeColor=#D80073;spacingTop=-1;spacingBottom=-1;spacingLeft=4;spacingRight=4;points=[[1,0.5,0],[0.5,0,0],[0.5,0,0],[0.51,0.99,0],[0.52,0.98,0]];labelBackgroundColor=none;rounded=0;html=1;whiteSpace=wrap;strokeWidth=5;" parent="1" vertex="1">
            <mxGeometry x="560" y="570" width="175" height="161" as="geometry" />
          </mxCell>
        </UserObject>
        <mxCell id="VxPaIPQbrVnLCbv-KDc1-45" value="&lt;font style=&quot;font-size: 13px;&quot; face=&quot;DM Sans&quot; color=&quot;#383838&quot;&gt;Competencia Shared ou Santher?&lt;br&gt;&lt;/font&gt;" style="text;vsdxID=222;fillColor=none;gradientColor=none;strokeColor=none;spacingTop=-1;spacingBottom=-1;spacingLeft=4;spacingRight=4;points=[[1,0.5,0],[0.5,0,0],[0.5,0,0],[0.51,0.99,0],[0.52,0.98,0]];labelBackgroundColor=none;rounded=0;html=1;whiteSpace=wrap;verticalAlign=middle;align=center;overflow=width;;html=1;" parent="VxPaIPQbrVnLCbv-KDc1-44" vertex="1">
          <mxGeometry x="14.66" y="19.61" width="146.64" height="121.19" as="geometry" />
        </mxCell>
        <mxCell id="VxPaIPQbrVnLCbv-KDc1-52" style="edgeStyle=orthogonalEdgeStyle;rounded=0;orthogonalLoop=1;jettySize=auto;html=1;exitX=0.51;exitY=0.99;exitDx=0;exitDy=0;exitPerimeter=0;" parent="1" source="VxPaIPQbrVnLCbv-KDc1-24" target="VxPaIPQbrVnLCbv-KDc1-32" edge="1">
          <mxGeometry relative="1" as="geometry">
            <mxPoint x="1328.74" y="1065" as="sourcePoint" />
            <mxPoint x="1569.9304761904764" y="1144.5" as="targetPoint" />
            <Array as="points">
              <mxPoint x="399" y="519" />
            </Array>
          </mxGeometry>
        </mxCell>
        <mxCell id="VxPaIPQbrVnLCbv-KDc1-53" value="&lt;font data-font-src=&quot;https://fonts.googleapis.com/css?family=REM&quot; size=&quot;1&quot; face=&quot;REM&quot; color=&quot;#009900&quot;&gt;&lt;b style=&quot;font-size: 15px;&quot;&gt;SIM&lt;/b&gt;&lt;/font&gt;" style="edgeLabel;html=1;align=center;verticalAlign=middle;resizable=0;points=[];" parent="VxPaIPQbrVnLCbv-KDc1-52" vertex="1" connectable="0">
          <mxGeometry x="-0.0393" y="1" relative="1" as="geometry">
            <mxPoint as="offset" />
          </mxGeometry>
        </mxCell>
        <mxCell id="eNxJHawOFmUS5L9MufU_-36" style="edgeStyle=orthogonalEdgeStyle;rounded=0;orthogonalLoop=1;jettySize=auto;html=1;" edge="1" parent="1" source="VxPaIPQbrVnLCbv-KDc1-54" target="VxPaIPQbrVnLCbv-KDc1-65">
          <mxGeometry relative="1" as="geometry" />
        </mxCell>
        <UserObject label="&lt;font face=&quot;DM Sans&quot; color=&quot;#ffffff&quot;&gt;&lt;b&gt;IMOC N3 escalona o chamado para N2 Santher&lt;br&gt;&lt;/b&gt;&lt;/font&gt;" tags="Fluxograma" id="VxPaIPQbrVnLCbv-KDc1-54">
          <mxCell style="verticalAlign=middle;align=center;overflow=width;vsdxID=64;fillColor=#1ba1e2;gradientColor=none;shape=stencil(nZBLDoAgDERP0z3SIyjew0SURgSD+Lu9kMZoXLhwN9O+tukAlrNpJg1SzDH4QW/URgNYgZTkjA4UkwJUgGXng+6DX1zLfmoymdXo17xh5zmRJ6Q42BWCfc2oJfdAr+Yv+AP9Cb7OJ3H/2JG1HNGz/84klThPVCc=);strokeColor=#ffffff;spacingTop=-1;spacingBottom=-1;spacingLeft=4;spacingRight=4;points=[[1,0.5,0],[0.5,0.5,0],[0.5,0,0]];labelBackgroundColor=none;rounded=0;html=1;whiteSpace=wrap;" parent="1" vertex="1">
            <mxGeometry x="779.9999999999998" y="770" width="200" height="90" as="geometry" />
          </mxCell>
        </UserObject>
        <mxCell id="eNxJHawOFmUS5L9MufU_-41" style="edgeStyle=orthogonalEdgeStyle;rounded=0;orthogonalLoop=1;jettySize=auto;html=1;entryX=0.5;entryY=0;entryDx=0;entryDy=0;entryPerimeter=0;" edge="1" parent="1" source="VxPaIPQbrVnLCbv-KDc1-57" target="VxPaIPQbrVnLCbv-KDc1-60">
          <mxGeometry relative="1" as="geometry" />
        </mxCell>
        <UserObject label="&lt;font face=&quot;DM Sans&quot; color=&quot;#ffffff&quot;&gt;&lt;b&gt;IMOC N3 realiza abertura de chamado para Shared&lt;br&gt;&lt;/b&gt;&lt;/font&gt;" tags="Fluxograma" id="VxPaIPQbrVnLCbv-KDc1-57">
          <mxCell style="verticalAlign=middle;align=center;overflow=width;vsdxID=64;fillColor=#1ba1e2;gradientColor=none;shape=stencil(nZBLDoAgDERP0z3SIyjew0SURgSD+Lu9kMZoXLhwN9O+tukAlrNpJg1SzDH4QW/URgNYgZTkjA4UkwJUgGXng+6DX1zLfmoymdXo17xh5zmRJ6Q42BWCfc2oJfdAr+Yv+AP9Cb7OJ3H/2JG1HNGz/84klThPVCc=);strokeColor=#ffffff;spacingTop=-1;spacingBottom=-1;spacingLeft=4;spacingRight=4;points=[[1,0.5,0],[0.5,0.5,0],[0.5,0,0]];labelBackgroundColor=none;rounded=0;html=1;whiteSpace=wrap;" parent="1" vertex="1">
            <mxGeometry x="547.5" y="770" width="200" height="90" as="geometry" />
          </mxCell>
        </UserObject>
        <mxCell id="eNxJHawOFmUS5L9MufU_-61" style="edgeStyle=orthogonalEdgeStyle;rounded=0;orthogonalLoop=1;jettySize=auto;html=1;entryX=0;entryY=0.333;entryDx=0;entryDy=0;entryPerimeter=0;" edge="1" parent="1" source="VxPaIPQbrVnLCbv-KDc1-60" target="VxPaIPQbrVnLCbv-KDc1-62">
          <mxGeometry relative="1" as="geometry">
            <Array as="points">
              <mxPoint x="640" y="1300" />
            </Array>
          </mxGeometry>
        </mxCell>
        <UserObject label="&lt;font face=&quot;DM Sans&quot; color=&quot;#ffffff&quot;&gt;&lt;b&gt;IMOC N3 realiza abertura de chamado no ITSM (Santher) com informações do chamado do Shared&lt;br&gt;&lt;/b&gt;&lt;/font&gt;" tags="Fluxograma" id="VxPaIPQbrVnLCbv-KDc1-60">
          <mxCell style="verticalAlign=middle;align=center;overflow=width;vsdxID=64;fillColor=#1ba1e2;gradientColor=none;shape=stencil(nZBLDoAgDERP0z3SIyjew0SURgSD+Lu9kMZoXLhwN9O+tukAlrNpJg1SzDH4QW/URgNYgZTkjA4UkwJUgGXng+6DX1zLfmoymdXo17xh5zmRJ6Q42BWCfc2oJfdAr+Yv+AP9Cb7OJ3H/2JG1HNGz/84klThPVCc=);strokeColor=#ffffff;spacingTop=-1;spacingBottom=-1;spacingLeft=4;spacingRight=4;points=[[1,0.5,0],[0.5,0.5,0],[0.5,0,0]];labelBackgroundColor=none;rounded=0;html=1;whiteSpace=wrap;" parent="1" vertex="1">
            <mxGeometry x="547.5" y="930" width="200" height="90" as="geometry" />
          </mxCell>
        </UserObject>
        <mxCell id="eNxJHawOFmUS5L9MufU_-58" style="edgeStyle=orthogonalEdgeStyle;rounded=0;orthogonalLoop=1;jettySize=auto;html=1;entryX=0.5;entryY=0;entryDx=0;entryDy=0;entryPerimeter=0;" edge="1" parent="1" source="VxPaIPQbrVnLCbv-KDc1-62" target="15">
          <mxGeometry relative="1" as="geometry" />
        </mxCell>
        <UserObject label="&lt;font face=&quot;DM Sans&quot; color=&quot;#ffffff&quot;&gt;&lt;b&gt;Colocar informação no grupo de Whatsapp NOC Quality | Santher&lt;br&gt;&lt;/b&gt;&lt;/font&gt;" tags="Fluxograma" id="VxPaIPQbrVnLCbv-KDc1-62">
          <mxCell style="verticalAlign=middle;align=center;overflow=width;vsdxID=64;fillColor=#1ba1e2;gradientColor=none;shape=stencil(nZBLDoAgDERP0z3SIyjew0SURgSD+Lu9kMZoXLhwN9O+tukAlrNpJg1SzDH4QW/URgNYgZTkjA4UkwJUgGXng+6DX1zLfmoymdXo17xh5zmRJ6Q42BWCfc2oJfdAr+Yv+AP9Cb7OJ3H/2JG1HNGz/84klThPVCc=);strokeColor=#ffffff;spacingTop=-1;spacingBottom=-1;spacingLeft=4;spacingRight=4;points=[[1,0.5,0],[0.5,0.5,0],[0.5,0,0]];labelBackgroundColor=none;rounded=0;html=1;whiteSpace=wrap;" parent="1" vertex="1">
            <mxGeometry x="779.9999999999998" y="1270" width="200" height="90" as="geometry" />
          </mxCell>
        </UserObject>
        <mxCell id="eNxJHawOFmUS5L9MufU_-52" style="edgeStyle=orthogonalEdgeStyle;rounded=0;orthogonalLoop=1;jettySize=auto;html=1;entryX=0.5;entryY=0;entryDx=0;entryDy=0;entryPerimeter=0;" edge="1" parent="1" source="VxPaIPQbrVnLCbv-KDc1-65" target="VxPaIPQbrVnLCbv-KDc1-62">
          <mxGeometry relative="1" as="geometry" />
        </mxCell>
        <UserObject label="&lt;font face=&quot;DM Sans&quot; color=&quot;#ffffff&quot;&gt;&lt;b&gt;IMOC N3 aciona o responsável do lado do cliente&lt;br&gt;&lt;/b&gt;&lt;/font&gt;" tags="Fluxograma" id="VxPaIPQbrVnLCbv-KDc1-65">
          <mxCell style="verticalAlign=middle;align=center;overflow=width;vsdxID=64;fillColor=#1ba1e2;gradientColor=none;shape=stencil(nZBLDoAgDERP0z3SIyjew0SURgSD+Lu9kMZoXLhwN9O+tukAlrNpJg1SzDH4QW/URgNYgZTkjA4UkwJUgGXng+6DX1zLfmoymdXo17xh5zmRJ6Q42BWCfc2oJfdAr+Yv+AP9Cb7OJ3H/2JG1HNGz/84klThPVCc=);strokeColor=#ffffff;spacingTop=-1;spacingBottom=-1;spacingLeft=4;spacingRight=4;points=[[1,0.5,0],[0.5,0.5,0],[0.5,0,0]];labelBackgroundColor=none;rounded=0;html=1;whiteSpace=wrap;" parent="1" vertex="1">
            <mxGeometry x="779.9999999999998" y="930" width="200" height="90" as="geometry" />
          </mxCell>
        </UserObject>
        <mxCell id="eNxJHawOFmUS5L9MufU_-57" style="edgeStyle=orthogonalEdgeStyle;rounded=0;orthogonalLoop=1;jettySize=auto;html=1;entryX=1;entryY=0.5;entryDx=0;entryDy=0;entryPerimeter=0;" edge="1" parent="1" source="VxPaIPQbrVnLCbv-KDc1-68" target="VxPaIPQbrVnLCbv-KDc1-62">
          <mxGeometry relative="1" as="geometry">
            <Array as="points">
              <mxPoint x="1120" y="1315" />
            </Array>
          </mxGeometry>
        </mxCell>
        <UserObject label="&lt;font face=&quot;DM Sans&quot; color=&quot;#ffffff&quot;&gt;&lt;b&gt;Atualizar chamado no ITSM da Santher e finalizar o chamado&lt;br&gt;&lt;/b&gt;&lt;/font&gt;" tags="Fluxograma" id="VxPaIPQbrVnLCbv-KDc1-68">
          <mxCell style="verticalAlign=middle;align=center;overflow=width;vsdxID=64;fillColor=#1ba1e2;gradientColor=none;shape=stencil(nZBLDoAgDERP0z3SIyjew0SURgSD+Lu9kMZoXLhwN9O+tukAlrNpJg1SzDH4QW/URgNYgZTkjA4UkwJUgGXng+6DX1zLfmoymdXo17xh5zmRJ6Q42BWCfc2oJfdAr+Yv+AP9Cb7OJ3H/2JG1HNGz/84klThPVCc=);strokeColor=#ffffff;spacingTop=-1;spacingBottom=-1;spacingLeft=4;spacingRight=4;points=[[1,0.5,0],[0.5,0.5,0],[0.5,0,0]];labelBackgroundColor=none;rounded=0;html=1;whiteSpace=wrap;" parent="1" vertex="1">
            <mxGeometry x="1019.9999999999997" y="930" width="200" height="90" as="geometry" />
          </mxCell>
        </UserObject>
        <mxCell id="VxPaIPQbrVnLCbv-KDc1-70" style="edgeStyle=orthogonalEdgeStyle;rounded=0;orthogonalLoop=1;jettySize=auto;html=1;exitX=1;exitY=0.5;exitDx=0;exitDy=0;exitPerimeter=0;" parent="1" source="VxPaIPQbrVnLCbv-KDc1-41" target="VxPaIPQbrVnLCbv-KDc1-68" edge="1">
          <mxGeometry relative="1" as="geometry">
            <mxPoint x="1863.9304761904764" y="705.5" as="sourcePoint" />
            <mxPoint x="2049.9304761904764" y="784.5" as="targetPoint" />
            <Array as="points">
              <mxPoint x="1120" y="441" />
            </Array>
          </mxGeometry>
        </mxCell>
        <mxCell id="VxPaIPQbrVnLCbv-KDc1-71" value="&lt;font data-font-src=&quot;https://fonts.googleapis.com/css?family=REM&quot; size=&quot;1&quot; face=&quot;REM&quot; color=&quot;#009900&quot;&gt;&lt;b style=&quot;font-size: 15px;&quot;&gt;SIM&lt;/b&gt;&lt;/font&gt;" style="edgeLabel;html=1;align=center;verticalAlign=middle;resizable=0;points=[];" parent="VxPaIPQbrVnLCbv-KDc1-70" vertex="1" connectable="0">
          <mxGeometry x="-0.0393" y="1" relative="1" as="geometry">
            <mxPoint as="offset" />
          </mxGeometry>
        </mxCell>
        <UserObject label="" tags="Fluxograma" id="VxPaIPQbrVnLCbv-KDc1-24">
          <mxCell style="vsdxID=222;fillColor=none;gradientColor=none;shape=stencil(UzV2Ls5ILEhVNTIoLinKz04tz0wpyVA1dlE1MsrMy0gtyiwBslSNXVWNndPyi1LTi/JL81Ig/IJEkEoQKze/DGRCBUSfAUiHkUElhGcK4bpBVOZk5iGpNEVVikeloQHZpsK0YlWLz1QgA+HFtMycHEgIIcujBwlQCBKcxq4A);strokeColor=#D80073;spacingTop=-1;spacingBottom=-1;spacingLeft=4;spacingRight=4;points=[[1,0.5,0],[0.5,0,0],[0.5,0,0],[0.51,0.99,0],[0.52,0.98,0]];labelBackgroundColor=none;rounded=0;html=1;whiteSpace=wrap;strokeWidth=5;" parent="1" vertex="1">
            <mxGeometry x="312.5" y="360.00000000000006" width="175" height="161" as="geometry" />
          </mxCell>
        </UserObject>
        <mxCell id="VxPaIPQbrVnLCbv-KDc1-25" value="&lt;font style=&quot;font-size: 16px;&quot; face=&quot;DM Sans&quot; color=&quot;#383838&quot;&gt;É alerta de firewall?&lt;br&gt;&lt;/font&gt;" style="text;vsdxID=222;fillColor=none;gradientColor=none;strokeColor=none;spacingTop=-1;spacingBottom=-1;spacingLeft=4;spacingRight=4;points=[[1,0.5,0],[0.5,0,0],[0.5,0,0],[0.51,0.99,0],[0.52,0.98,0]];labelBackgroundColor=none;rounded=0;html=1;whiteSpace=wrap;verticalAlign=middle;align=center;overflow=width;;html=1;" parent="VxPaIPQbrVnLCbv-KDc1-24" vertex="1">
          <mxGeometry x="14.66" y="19.61" width="146.64" height="121.19" as="geometry" />
        </mxCell>
        <mxCell id="eNxJHawOFmUS5L9MufU_-28" style="edgeStyle=orthogonalEdgeStyle;rounded=0;orthogonalLoop=1;jettySize=auto;html=1;exitX=0.499;exitY=1.015;exitDx=0;exitDy=0;exitPerimeter=0;entryX=0.5;entryY=0;entryDx=0;entryDy=0;entryPerimeter=0;" edge="1" parent="1" source="VxPaIPQbrVnLCbv-KDc1-19" target="VxPaIPQbrVnLCbv-KDc1-21">
          <mxGeometry relative="1" as="geometry">
            <mxPoint x="130.19047619047637" y="590" as="sourcePoint" />
            <mxPoint x="316.1904761904764" y="669" as="targetPoint" />
            <Array as="points">
              <mxPoint x="142" y="540" />
              <mxPoint x="143" y="540" />
              <mxPoint x="143" y="669" />
              <mxPoint x="143" y="669" />
            </Array>
          </mxGeometry>
        </mxCell>
        <mxCell id="eNxJHawOFmUS5L9MufU_-29" value="&lt;font data-font-src=&quot;https://fonts.googleapis.com/css?family=REM&quot; size=&quot;1&quot; face=&quot;REM&quot; color=&quot;#009900&quot;&gt;&lt;b style=&quot;font-size: 15px;&quot;&gt;SIM&lt;/b&gt;&lt;/font&gt;" style="edgeLabel;html=1;align=center;verticalAlign=middle;resizable=0;points=[];" vertex="1" connectable="0" parent="eNxJHawOFmUS5L9MufU_-28">
          <mxGeometry x="-0.0393" y="1" relative="1" as="geometry">
            <mxPoint as="offset" />
          </mxGeometry>
        </mxCell>
        <UserObject label="" tags="Fluxograma" id="VxPaIPQbrVnLCbv-KDc1-41">
          <mxCell style="vsdxID=222;fillColor=none;gradientColor=none;shape=stencil(UzV2Ls5ILEhVNTIoLinKz04tz0wpyVA1dlE1MsrMy0gtyiwBslSNXVWNndPyi1LTi/JL81Ig/IJEkEoQKze/DGRCBUSfAUiHkUElhGcK4bpBVOZk5iGpNEVVikeloQHZpsK0YlWLz1QgA+HFtMycHEgIIcujBwlQCBKcxq4A);strokeColor=#D80073;spacingTop=-1;spacingBottom=-1;spacingLeft=4;spacingRight=4;points=[[1,0.5,0],[0.5,0,0],[0.5,0,0],[0.51,0.99,0],[0.52,0.98,0]];labelBackgroundColor=none;rounded=0;html=1;whiteSpace=wrap;strokeWidth=5;" parent="1" vertex="1">
            <mxGeometry x="860" y="360" width="175" height="161" as="geometry" />
          </mxCell>
        </UserObject>
        <mxCell id="VxPaIPQbrVnLCbv-KDc1-42" value="&lt;font style=&quot;font-size: 17px;&quot; face=&quot;DM Sans&quot; color=&quot;#383838&quot;&gt;Resolveu?&lt;/font&gt;" style="text;vsdxID=222;fillColor=none;gradientColor=none;strokeColor=none;spacingTop=-1;spacingBottom=-1;spacingLeft=4;spacingRight=4;points=[[1,0.5,0],[0.5,0,0],[0.5,0,0],[0.51,0.99,0],[0.52,0.98,0]];labelBackgroundColor=none;rounded=0;html=1;whiteSpace=wrap;verticalAlign=middle;align=center;overflow=width;;html=1;" parent="VxPaIPQbrVnLCbv-KDc1-41" vertex="1">
          <mxGeometry x="14.66" y="19.61" width="146.64" height="121.19" as="geometry" />
        </mxCell>
      </root>
    </mxGraphModel>
  </diagram>
</mxfile>
